# xmcd
#
# Track frame offsets:
#	150
#	11226
#	23091
#	34449
#	45709
#	57451
#	71434
#	81556
#	93966
#	106451
#	119347
#	131410
#	143166
#	154203
#	165408
#	177250
#	188310
#	199780
#	212361
#	224197
#	236484
#	249035
#	262335
#	274878
#	288281
#	301751
#	315331
#	327810
#	339570
#	352333
#	365603
#	377257
#	389279
#	401268
#	413339
#	426027
#	438441
#	450634
#	463173
#	475189
#
# Disc length: 6499 seconds
#
# Revision: 0
# Processed by: cddbd v1.4PL0 Copyright (c) Steve Scherf et al.
# Submitted via: EasyCDDAExtractor 4.6.9.1
#
DISCID=61196128
DTITLE=40 Greatest Hits - Hank Williams
DYEAR=1978
DGENRE=Country
TTITLE0=I Can't Help It (If I'm Still
TTITLE1=A Mansion On The Hill
TTITLE2=Crazy Heart
TTITLE3=(I Heard That) Lonesome Whistl
TTITLE4=Baby, We're Really In Love
TTITLE5=Ramblin' Man
TTITLE6=Honky Tonk Blues
TTITLE7=I'm Sorry For You My Friend
TTITLE8=Half As Much
TTITLE9=I Just Don't Like This Kind Of
TTITLE10=Long Gone Lonesome Blues
TTITLE11=My Son Calls Another Man Daddy
TTITLE12=Why Don't You Love Me
TTITLE13=I'll Never Get Out Of This Wor
TTITLE14=Kaw-Liga
TTITLE15=Moanin' The Blues
TTITLE16=Nobody's Lonesome For Me
TTITLE17=Cold Cold Heart
TTITLE18=Dear John
TTITLE19=Howlin' At The Moon
TTITLE20=Move It On Over
TTITLE21=Hey, Good Lookin'
TTITLE22=Lovesick Blues
TTITLE23=Wedding Bells
TTITLE24=Mind Your Own Business
TTITLE25=You're Gonna Change (Or I'm Go
TTITLE26=Lost Highway
TTITLE27=My Bucket's Got A Hole In It
TTITLE28=I'm So Lonesome I Could Cry
TTITLE29=Jambalaya (On The Bayou)
TTITLE30=Window Shopping
TTITLE31=Settin' The Woods On Fire
TTITLE32=You Win Again
TTITLE33=Why Should We Try Anymore
TTITLE34=They'll Never Take Her Love Fr
TTITLE35=Your Cheatin' Heart
TTITLE36=Take These Chains From My Hear
TTITLE37=I Won't Be Home No More
TTITLE38=Weary Blues From Waitin'
TTITLE39=I Saw The Light
EXTD=
EXTT0=
EXTT1=
EXTT2=
EXTT3=
EXTT4=
EXTT5=
EXTT6=
EXTT7=
EXTT8=
EXTT9=
EXTT10=
EXTT11=
EXTT12=
EXTT13=
EXTT14=
EXTT15=
EXTT16=
EXTT17=
EXTT18=
EXTT19=
EXTT20=
EXTT21=
EXTT22=
EXTT23=
EXTT24=
EXTT25=
EXTT26=
EXTT27=
EXTT28=
EXTT29=
EXTT30=
EXTT31=
EXTT32=
EXTT33=
EXTT34=
EXTT35=
EXTT36=
EXTT37=
EXTT38=
EXTT39=
PLAYORDER=
